<svg id="visual" viewBox="0 0 2500 600" width="2500" height="600" xmlns="http://www.w3.org/2000/svg" xmlns:xlink="http://www.w3.org/1999/xlink" version="1.1"><rect x="0" y="0" width="2500" height="600" fill="#FFF"></rect><path d="M0 317L37.8 303C75.7 289 151.3 261 227.2 243.5C303 226 379 219 454.8 217.5C530.7 216 606.3 220 682 227.5C757.7 235 833.3 246 909 249.2C984.7 252.3 1060.3 247.7 1136.2 247.3C1212 247 1288 251 1363.8 248C1439.7 245 1515.3 235 1591 244.8C1666.7 254.7 1742.3 284.3 1818 289.3C1893.7 294.3 1969.3 274.7 2045.2 273.3C2121 272 2197 289 2272.8 279.2C2348.7 269.3 2424.3 232.7 2462.2 214.3L2500 196L2500 0L2462.2 0C2424.3 0 2348.7 0 2272.8 0C2197 0 2121 0 2045.2 0C1969.3 0 1893.7 0 1818 0C1742.3 0 1666.7 0 1591 0C1515.3 0 1439.7 0 1363.8 0C1288 0 1212 0 1136.2 0C1060.3 0 984.7 0 909 0C833.3 0 757.7 0 682 0C606.3 0 530.7 0 454.8 0C379 0 303 0 227.2 0C151.3 0 75.7 0 37.8 0L0 0Z" fill="#ffffff"></path><path d="M0 263L37.8 265.2C75.7 267.3 151.3 271.7 227.2 254.5C303 237.3 379 198.7 454.8 183.8C530.7 169 606.3 178 682 192.7C757.7 207.3 833.3 227.7 909 224.8C984.7 222 1060.3 196 1136.2 192C1212 188 1288 206 1363.8 205C1439.7 204 1515.3 184 1591 182.2C1666.7 180.3 1742.3 196.7 1818 195.3C1893.7 194 1969.3 175 2045.2 165.5C2121 156 2197 156 2272.8 162.8C2348.7 169.7 2424.3 183.3 2462.2 190.2L2500 197L2500 0L2462.2 0C2424.3 0 2348.7 0 2272.8 0C2197 0 2121 0 2045.2 0C1969.3 0 1893.7 0 1818 0C1742.3 0 1666.7 0 1591 0C1515.3 0 1439.7 0 1363.8 0C1288 0 1212 0 1136.2 0C1060.3 0 984.7 0 909 0C833.3 0 757.7 0 682 0C606.3 0 530.7 0 454.8 0C379 0 303 0 227.2 0C151.3 0 75.7 0 37.8 0L0 0Z" fill="#f8f9fa"></path><path d="M0 119L37.8 131.7C75.7 144.3 151.3 169.7 227.2 186.3C303 203 379 211 454.8 207.8C530.7 204.7 606.3 190.3 682 189.5C757.7 188.7 833.3 201.3 909 200.8C984.7 200.3 1060.3 186.7 1136.2 181.3C1212 176 1288 179 1363.8 177.8C1439.7 176.7 1515.3 171.3 1591 159.5C1666.7 147.7 1742.3 129.3 1818 120.5C1893.7 111.7 1969.3 112.3 2045.2 123.5C2121 134.7 2197 156.3 2272.8 167.2C2348.7 178 2424.3 178 2462.2 178L2500 178L2500 0L2462.2 0C2424.3 0 2348.7 0 2272.8 0C2197 0 2121 0 2045.2 0C1969.3 0 1893.7 0 1818 0C1742.3 0 1666.7 0 1591 0C1515.3 0 1439.7 0 1363.8 0C1288 0 1212 0 1136.2 0C1060.3 0 984.7 0 909 0C833.3 0 757.7 0 682 0C606.3 0 530.7 0 454.8 0C379 0 303 0 227.2 0C151.3 0 75.7 0 37.8 0L0 0Z" fill="#f1f3f5"></path><path d="M0 112L37.8 118.3C75.7 124.7 151.3 137.3 227.2 137.5C303 137.7 379 125.3 454.8 122.8C530.7 120.3 606.3 127.7 682 123.2C757.7 118.7 833.3 102.3 909 98.3C984.7 94.3 1060.3 102.7 1136.2 100.7C1212 98.7 1288 86.3 1363.8 94.5C1439.7 102.7 1515.3 131.3 1591 141.2C1666.7 151 1742.3 142 1818 128.2C1893.7 114.3 1969.3 95.7 2045.2 90C2121 84.3 2197 91.7 2272.8 103.8C2348.7 116 2424.3 133 2462.2 141.5L2500 150L2500 0L2462.2 0C2424.3 0 2348.7 0 2272.8 0C2197 0 2121 0 2045.2 0C1969.3 0 1893.7 0 1818 0C1742.3 0 1666.7 0 1591 0C1515.3 0 1439.7 0 1363.8 0C1288 0 1212 0 1136.2 0C1060.3 0 984.7 0 909 0C833.3 0 757.7 0 682 0C606.3 0 530.7 0 454.8 0C379 0 303 0 227.2 0C151.3 0 75.7 0 37.8 0L0 0Z" fill="#eaedf0"></path><path d="M0 89L37.8 88.3C75.7 87.7 151.3 86.3 227.2 82.7C303 79 379 73 454.8 68.2C530.7 63.3 606.3 59.7 682 65.7C757.7 71.7 833.3 87.3 909 84C984.7 80.7 1060.3 58.3 1136.2 52.7C1212 47 1288 58 1363.8 68.7C1439.7 79.3 1515.3 89.7 1591 89.5C1666.7 89.3 1742.3 78.7 1818 78.7C1893.7 78.7 1969.3 89.3 2045.2 91.2C2121 93 2197 86 2272.8 82.8C2348.7 79.7 2424.3 80.3 2462.2 80.7L2500 81L2500 0L2462.2 0C2424.3 0 2348.7 0 2272.8 0C2197 0 2121 0 2045.2 0C1969.3 0 1893.7 0 1818 0C1742.3 0 1666.7 0 1591 0C1515.3 0 1439.7 0 1363.8 0C1288 0 1212 0 1136.2 0C1060.3 0 984.7 0 909 0C833.3 0 757.7 0 682 0C606.3 0 530.7 0 454.8 0C379 0 303 0 227.2 0C151.3 0 75.7 0 37.8 0L0 0Z" fill="#e3e7eb"></path></svg>